<?xml version="1.0" encoding="UTF-8"?>
<svg version="1.1" xmlns="http://www.w3.org/2000/svg" width="1280" height="1280">
<path d="M0 0 C1.52415913 -0.00087383 3.04831795 -0.00262808 4.57247519 -0.00517833 C8.72977974 -0.00962095 12.88697996 -0.00169099 17.04427123 0.00837779 C21.53898965 0.01705481 26.03370268 0.01408913 30.52842712 0.01257324 C38.30558911 0.01152707 46.0827174 0.01777562 53.85987091 0.02904892 C65.10417682 0.04533735 76.34846652 0.05051534 87.59278294 0.0530249 C105.83812998 0.05739677 124.08345908 0.07069205 142.32879639 0.08963013 C160.04721996 0.1080021 177.76563865 0.12215216 195.48406982 0.13064575 C197.12368187 0.13143392 197.12368187 0.13143392 198.79641739 0.13223802 C204.28032389 0.13484818 209.76423043 0.13737558 215.248137 0.13986182 C260.70683926 0.16057848 306.16552198 0.19579014 351.62420654 0.24050903 C353.21237762 3.41685119 352.76249456 6.84264676 352.75360107 10.33035278 C352.75622955 11.58418259 352.75622955 11.58418259 352.75891113 12.86334229 C352.76332351 15.6349188 352.7603938 18.40643184 352.75701904 21.17800903 C352.75769226 23.09850069 352.75866243 25.01899227 352.75991821 26.93948364 C352.76139435 30.96789357 352.75924331 34.99628136 352.75457764 39.02468872 C352.7488804 44.19675967 352.75215985 49.36877873 352.7581501 54.54084778 C352.76175796 58.50756219 352.76061609 62.47426423 352.75802231 66.440979 C352.75735366 68.34842942 352.75817929 70.25588096 352.76050186 72.16333008 C352.76303205 74.82580555 352.75918257 77.48819616 352.75360107 80.15066528 C352.75562531 80.94449615 352.75764954 81.73832703 352.75973511 82.55621338 C352.73847068 88.01198075 352.73847068 88.01198075 351.62420654 90.24050903 C235.79420654 90.24050903 119.96420654 90.24050903 0.62420654 90.24050903 C0.95420654 128.52050903 1.28420654 166.80050903 1.62420654 206.24050903 C9.89604004 206.25509155 18.16787354 206.26967407 26.69036865 206.28469849 C53.20641623 206.3335343 79.72240982 206.396965 106.23840254 206.46949532 C110.3623649 206.48076246 114.4863276 206.49190107 118.61029053 206.50296021 C119.43124093 206.50516389 120.25219133 206.50736757 121.09801901 206.50963803 C134.36230341 206.5449375 147.62658777 206.56984303 160.89090162 206.59085605 C174.51784062 206.61267684 188.14471907 206.64578641 201.7716065 206.68921059 C210.1690724 206.71561958 218.56646296 206.73339394 226.96396828 206.73985507 C232.73520912 206.74514207 238.50635545 206.76146887 244.2775455 206.78617469 C247.5991506 206.80007751 250.92044473 206.80775696 254.24209976 206.8055172 C289.31442046 206.78934458 317.3545838 213.39678621 342.97186279 238.54519653 C360.35888178 256.73744625 366.77874096 280.6495433 366.76947021 305.2114563 C366.77450813 307.13753471 366.77450813 307.13753471 366.77964783 309.1025238 C366.788437 312.60708251 366.79082389 316.11161676 366.79146361 319.61618543 C366.7921774 321.81340551 366.79431799 324.0106195 366.79696083 326.20783806 C366.80619989 333.89557154 366.81029783 341.58328776 366.80950928 349.27102661 C366.80890999 356.39979408 366.81943616 363.52848552 366.83525294 370.65723377 C366.84840209 376.80620218 366.85369005 382.95514597 366.85305387 389.1041283 C366.85280089 392.76372165 366.85553954 396.42324746 366.86623192 400.08282661 C366.87786686 404.17653574 366.87312136 408.27007873 366.86712646 412.36380005 C366.87274597 413.55030151 366.87836548 414.73680298 366.88415527 415.95925903 C366.84099168 427.65503804 365.83196408 439.41059985 361.87420654 450.49050903 C361.47951172 451.62661621 361.47951172 451.62661621 361.07684326 452.78567505 C357.25577668 463.44437985 351.50339652 472.2932536 344.62420654 481.24050903 C344.18205811 481.82703247 343.73990967 482.41355591 343.28436279 483.01785278 C329.51991018 500.48990205 304.60432935 512.6679393 282.81922054 515.8655262 C264.65453975 517.99742405 246.1872499 517.38525316 227.92825854 517.3712337 C223.51610516 517.36894833 219.10395557 517.37247444 214.69180298 517.37521362 C206.07834342 517.37963516 197.46489262 517.37871159 188.85143273 517.37580098 C181.85485826 517.37353515 174.85828623 517.37323952 167.8617115 517.3743248 C166.86295785 517.37447803 165.86420419 517.37463126 164.83518528 517.37478914 C162.80594889 517.37510888 160.7767125 517.3754331 158.74747611 517.37576173 C139.77414152 517.37860526 120.80081179 517.37534592 101.827478 517.36996137 C85.54072429 517.36548264 69.2539777 517.36628021 52.96722412 517.37088013 C34.03166288 517.37622568 15.09610587 517.37834297 -3.83945602 517.37526786 C-5.85569282 517.37494932 -7.87192963 517.37463495 -9.88816643 517.3743248 C-10.88012404 517.37417052 -11.87208166 517.37401625 -12.8940986 517.3738573 C-19.89251515 517.37299296 -26.89092903 517.374453 -33.88934517 517.37680435 C-42.40184557 517.3796018 -50.91433674 517.37886477 -59.42683608 517.37352361 C-63.77141775 517.37088766 -68.115984 517.36987992 -72.46056557 517.37317276 C-76.43154728 517.37613715 -80.40249918 517.37454056 -84.37347817 517.36919521 C-85.81506252 517.36807179 -87.25664935 517.36866056 -88.69823212 517.371071 C-90.6471197 517.37408159 -92.59601427 517.37041668 -94.54489994 517.36635017 C-95.63047343 517.36618782 -96.71604693 517.36602547 -97.83451658 517.3658582 C-100.37579346 517.24050903 -100.37579346 517.24050903 -102.37579346 516.24050903 C-102.39891489 503.74093804 -102.41670752 491.24137208 -102.42760563 478.7417841 C-102.4328349 472.9383729 -102.43993333 467.13497629 -102.45123291 461.33157349 C-102.46206024 455.7360005 -102.46806996 450.14044158 -102.4706707 444.54485893 C-102.47252523 442.4049196 -102.47614637 440.26498107 -102.48152351 438.12504768 C-102.4887319 435.13885938 -102.48978448 432.15272996 -102.48931885 429.16653442 C-102.49291412 428.2724588 -102.4965094 427.37838318 -102.50021362 426.45721436 C-102.48984562 420.35456119 -102.48984562 420.35456119 -101.37579346 419.24050903 C-99.43683469 419.13775421 -97.49407937 419.10650013 -95.55240536 419.10184383 C-94.27897492 419.09636939 -93.00554449 419.09089495 -91.69352525 419.08525461 C-90.26192604 419.0841782 -88.83032675 419.08319355 -87.39872742 419.08229065 C-85.89231088 419.0777291 -84.38589561 419.07272969 -82.87948185 419.06732708 C-78.72016955 419.0536901 -74.56086545 419.04631162 -70.40153658 419.03990042 C-65.92365654 419.03192078 -61.44579372 419.01821469 -56.96792603 419.00518799 C-49.20314 418.98339054 -41.43835226 418.96525806 -33.67355156 418.94958305 C-22.44681803 418.9269141 -11.22010356 418.89876722 0.00661384 418.86926378 C18.21922424 418.82155129 36.4318424 418.77829705 54.64447021 418.73782349 C72.34109096 418.69848713 90.03770478 418.6570654 107.73431396 418.61282349 C108.82430463 418.61009921 109.91429529 418.60737494 111.03731597 418.60456812 C116.50523143 418.59088895 121.97314679 418.57716861 127.44106209 418.56342781 C172.83542917 418.44940561 218.22981119 418.342609 263.62420654 418.24050903 C263.62282385 417.36889964 263.62282385 417.36889964 263.62141323 416.47968197 C263.59930365 402.32376879 263.58276849 388.16785821 263.57239437 374.01193142 C263.56724384 367.16616126 263.56022487 360.32040264 263.54876709 353.47463989 C263.53771409 346.8675597 263.53192119 340.26048834 263.5293293 333.65339851 C263.52748228 331.13324863 263.52387555 328.61309941 263.51847649 326.09295464 C263.51121299 322.56196553 263.51021785 319.0310259 263.51068115 315.50003052 C263.50708588 314.45921326 263.5034906 313.418396 263.49978638 312.34603882 C263.50708853 307.19962764 263.73032828 302.31153799 264.62420654 297.24050903 C263.74778653 297.24221777 263.74778653 297.24221777 262.85366106 297.24396104 C228.17325295 297.31119243 193.49285791 297.36261771 158.8123984 297.39370502 C154.64208304 297.39745684 150.47176781 297.40133984 146.30145264 297.40530396 C145.47126808 297.40609089 144.64108353 297.40687782 143.78574187 297.4076886 C130.36878812 297.42071885 116.95187321 297.44435948 103.53494245 297.47196742 C89.75323637 297.50008804 75.97155054 297.51669932 62.18981695 297.52277452 C53.69557745 297.5268772 45.20144771 297.53980368 36.70724201 297.56425843 C30.8711016 297.58019794 25.03501739 297.58489095 19.19885683 297.58101317 C15.83886512 297.57910427 12.47921714 297.58356679 9.11923409 297.59812546 C-23.28841933 297.73159241 -51.51904651 291.95008254 -75.56329346 268.55300903 C-81.73392663 262.37155603 -86.24926662 255.96855928 -90.37579346 248.24050903 C-90.76895752 247.55988403 -91.16212158 246.87925903 -91.56719971 246.17800903 C-102.61360155 226.07788961 -102.84519256 203.17503453 -102.80938721 180.91629028 C-102.8139622 178.39636598 -102.81927162 175.87644292 -102.82527161 173.35652161 C-102.83528282 167.43104281 -102.82930721 161.50571985 -102.81801802 155.58024806 C-102.8088209 149.57683722 -102.83347522 143.57384197 -102.85975552 137.57047749 C-102.87827827 132.37192044 -102.87779303 127.17348685 -102.872118 121.97490501 C-102.87196665 119.51821334 -102.87785327 117.06151227 -102.89040947 114.60485268 C-103.02284301 84.4474873 -99.28797198 57.07412315 -79.37579346 33.24050903 C-78.81762939 32.52507935 -78.25946533 31.80964966 -77.68438721 31.07254028 C-58.84630271 8.08438102 -28.56090057 -0.12298858 0 0 Z " fill="#FBFBFB" transform="translate(284.37579345703125,387.7594909667969)"/>
<path d="M0 0 C1.42291351 0.00303635 1.42291351 0.00303635 2.87457275 0.00613403 C3.86797668 0.00438171 4.86138062 0.00262939 5.8848877 0.00082397 C9.18615437 -0.00359654 12.48736798 -0.00065585 15.78863525 0.00271606 C18.07167572 0.00204308 20.35471612 0.00107311 22.63775635 -0.00018311 C27.42959269 -0.00166035 32.22141044 0.00049533 37.01324463 0.00515747 C43.1708016 0.01085477 49.32831499 0.0075759 55.48587036 0.00158501 C60.20229422 -0.00201989 64.91870767 -0.00088235 69.63513184 0.0017128 C71.90625005 0.00238227 74.1773692 0.00155296 76.44848633 -0.00076675 C79.61658247 -0.00329211 82.78460698 0.00054567 85.95269775 0.00613403 C86.90130676 0.0041098 87.84991577 0.00208557 88.82727051 0 C95.29937302 0.02126633 95.29937302 0.02126633 96.41363525 1.13552856 C96.57995002 3.67223847 96.67805303 6.18275874 96.73429871 8.72293091 C96.75547056 9.55034412 96.77664241 10.37775734 96.79845583 11.23024368 C96.86775305 14.10220101 96.92681028 16.97423688 96.98370361 19.84646606 C97.01560691 21.39150377 97.01560691 21.39150377 97.04815471 22.96775436 C97.72671888 57.2115447 97.44461376 91.46839597 97.32363063 125.71638012 C97.28783064 135.91468371 97.25871753 146.11300364 97.22987413 156.31132889 C97.17830069 174.48679327 97.12172052 192.66223827 97.06182861 210.837677 C97.00378524 228.45550795 96.94821435 246.07334396 96.89581299 263.69119263 C96.89252749 264.79480487 96.88924199 265.89841712 96.88585693 267.03547215 C96.8601672 275.67107487 96.83461731 284.30667799 96.80911148 292.94228125 C96.68483577 335.0067228 96.54840392 377.07111679 96.41363525 419.13552856 C173.96363525 419.13552856 251.51363525 419.13552856 331.41363525 419.13552856 C333.17600566 424.42263979 333.70036603 428.31204144 333.67242432 433.72366333 C333.67768127 434.98577133 333.67768127 434.98577133 333.68304443 436.27337646 C333.69181256 439.04131435 333.68603054 441.80899454 333.67926025 444.57693481 C333.68060819 446.50694325 333.6825498 448.43695135 333.68505859 450.36695862 C333.68800308 454.40597781 333.68373343 458.44490837 333.67437744 462.48391724 C333.66297568 467.65787327 333.66955126 472.83162196 333.68152237 478.00557041 C333.68875264 481.9887091 333.68644779 485.97179871 333.68126678 489.95493889 C333.67993392 491.86270103 333.68156528 493.77046765 333.68622589 495.67822456 C333.69131111 498.34453247 333.68355315 501.01050534 333.67242432 503.67678833 C333.67647278 504.46289993 333.68052124 505.24901154 333.68469238 506.0589447 C333.65228927 510.25456926 333.0790737 513.31344246 331.41363525 517.13552856 C310.15254336 517.15935744 288.8914538 517.17674396 267.63035107 517.18734074 C257.74861885 517.19240141 247.86689522 517.199271 237.98516846 517.21096802 C198.16548349 517.25696356 158.34731537 517.24894889 118.52980638 516.78400111 C116.12053287 516.75697141 113.71124802 516.7332051 111.30193138 516.71037483 C107.55397754 516.67424625 103.80626197 516.62845725 100.05851531 516.5750668 C98.07474378 516.54863915 96.09086581 516.53059994 94.10699654 516.51297569 C69.78146412 516.11759425 46.87915461 509.38245502 28.41363525 493.13552856 C27.56801025 492.47295044 26.72238525 491.81037231 25.85113525 491.12771606 C22.23338345 488.17089969 19.4098884 484.70368065 16.41363525 481.13552856 C15.77168213 480.41623169 15.129729 479.69693481 14.46832275 478.95584106 C-5.38537996 455.83211673 -7.75663816 424.97173325 -7.71334839 395.81758118 C-7.71450294 394.10679301 -7.71609269 392.39600509 -7.71807563 390.68521768 C-7.72222257 386.02132396 -7.72019943 381.3574509 -7.71708941 376.69355714 C-7.71481676 371.65010911 -7.71832403 366.6066645 -7.72106934 361.56321716 C-7.72550484 351.70145 -7.72456081 341.83969046 -7.7216567 331.977923 C-7.7193956 323.96768099 -7.7190932 315.95744111 -7.72018051 307.94719887 C-7.72033374 306.80593562 -7.72048698 305.66467237 -7.72064485 304.48882538 C-7.72096458 302.17032859 -7.72128879 299.8518318 -7.72161745 297.53333501 C-7.7244653 275.82221032 -7.72119524 254.11108986 -7.71581708 232.39996586 C-7.71134185 213.75574702 -7.71213222 195.1115344 -7.71673584 176.46731567 C-7.72208042 154.81214604 -7.7241989 133.1569801 -7.72112358 111.5018099 C-7.72080502 109.1959577 -7.72049065 106.89010551 -7.72018051 104.58425331 C-7.72002624 103.44971042 -7.71987196 102.31516753 -7.71971301 101.14624455 C-7.71884808 93.13551719 -7.72031004 85.12479217 -7.72266006 77.11406517 C-7.72545661 67.36733752 -7.72472257 57.62061792 -7.71937932 47.8738912 C-7.71674154 42.8975857 -7.71573865 37.92129367 -7.71902847 32.94498825 C-7.72198937 28.3977624 -7.72040215 23.85056262 -7.71505092 19.30333916 C-7.71392594 17.65099194 -7.71451967 15.99864255 -7.71692671 14.34629669 C-7.71992943 12.11544121 -7.7168876 9.88467725 -7.71220589 7.65382671 C-7.71204353 6.41023724 -7.71188118 5.16664777 -7.71171391 3.88537377 C-7.47322689 -1.34643119 -4.54614926 0.01493794 0 0 Z " fill="#F7F7F7" transform="translate(757.5863647460938,387.8644714355469)"/>
<path d="M0 0 C0.90028427 0.00045319 1.80056854 0.00090637 2.72813416 0.00137329 C3.67116394 -0.00198532 4.61419373 -0.00534393 5.58580017 -0.00880432 C8.71992795 -0.01834529 11.8540025 -0.02025899 14.98814392 -0.02133179 C17.15668765 -0.02454214 19.32523115 -0.02790603 21.49377441 -0.03141785 C26.04602053 -0.03741697 30.59824764 -0.03925694 35.15049744 -0.03866577 C40.996352 -0.03856409 46.84208525 -0.05221864 52.68791103 -0.06943798 C57.16847295 -0.08053232 61.6490053 -0.08258577 66.12957954 -0.08205605 C68.28544089 -0.08323996 70.4413029 -0.08768456 72.5971508 -0.09538841 C75.60704528 -0.10513685 78.6166733 -0.10233073 81.62657166 -0.09628296 C82.5248317 -0.10190247 83.42309174 -0.10752197 84.34857178 -0.11331177 C90.51373499 -0.08167821 90.51373499 -0.08167821 92.74205017 2.14663696 C92.94091141 5.11870691 93.01469658 7.99762728 93.00083923 10.97085571 C93.00434387 11.88477081 93.00784851 12.79868591 93.01145935 13.74029541 C93.02028667 16.77165241 93.01442398 19.80277744 93.00767517 22.83413696 C93.00902153 24.93399094 93.01096182 27.03384461 93.01347351 29.13369751 C93.01642613 33.53875694 93.01212269 37.94373537 93.00279236 42.3487854 C92.99139778 48.00517728 92.99795651 53.66137937 93.00993729 59.31776428 C93.01715215 63.65507445 93.01486967 67.99233937 93.0096817 72.32965088 C93.00834417 74.41573102 93.00999652 76.50181522 93.01464081 78.58789062 C93.0196999 81.4995111 93.01200449 84.41082097 93.00083923 87.32241821 C93.0048877 88.19105499 93.00893616 89.05969177 93.0131073 89.95465088 C92.97057789 95.91810924 92.97057789 95.91810924 90.74205017 98.14663696 C87.67364147 98.34034852 84.6957736 98.40875778 81.62657166 98.38955688 C80.2093985 98.3924044 80.2093985 98.3924044 78.76359558 98.39530945 C75.6300282 98.39902452 72.49669082 98.38830335 69.36314392 98.37710571 C67.19363431 98.37591431 65.02412418 98.37546067 62.85461426 98.37571716 C58.30412068 98.37415108 53.75370564 98.36585129 49.20323181 98.35244751 C43.35621496 98.33544741 37.50928442 98.33163338 31.66224575 98.33239269 C27.18172372 98.33212141 22.70122074 98.32664715 18.22070503 98.31939125 C16.0640229 98.31619846 13.90733859 98.31423576 11.75065422 98.31349754 C8.74310972 98.31134099 5.73565873 98.30261197 2.72813416 98.29190063 C1.82784988 98.29235382 0.92756561 98.29280701 0 98.29327393 C-6.14347587 98.26111092 -6.14347587 98.26111092 -7.25794983 97.14663696 C-9.13169808 78.22039168 -8.21396086 58.98195236 -7.92134094 39.99581909 C-7.86955301 36.48963596 -7.82632256 32.98336675 -7.78304482 29.47706985 C-7.74039357 26.0971426 -7.69294771 22.71729641 -7.6439476 19.33745575 C-7.62105313 17.72505325 -7.59954333 16.11263047 -7.57944107 14.50019073 C-7.55082973 12.27058182 -7.51589589 10.04116351 -7.47914124 7.81167603 C-7.46058075 6.54487 -7.44202026 5.27806396 -7.42289734 3.97286987 C-7.12101676 -1.19959277 -4.57853032 0.02397003 0 0 Z " fill="#F2F2F2" transform="translate(1137.2579498291016,806.8533630371094)"/>
<path d="M0 0 C12.62995485 -0.02312132 25.2599047 -0.04091401 37.88987637 -0.05181217 C43.75382164 -0.05704146 49.61775249 -0.06413994 55.48168945 -0.07543945 C61.13561712 -0.0862667 66.78953087 -0.09227649 72.44346809 -0.09487724 C74.6057361 -0.09673179 76.76800331 -0.10035295 78.93026543 -0.10573006 C81.94758657 -0.11293833 84.96484943 -0.11399103 87.98217773 -0.11352539 C88.8856041 -0.11712067 89.78903046 -0.12071594 90.71983337 -0.12442017 C96.88594784 -0.11405216 96.88594784 -0.11405216 98 1 C98.10056691 3.88606016 98.13615375 6.74822575 98.12939453 9.63476562 C98.13202301 10.99319832 98.13202301 10.99319832 98.13470459 12.3790741 C98.13912454 15.38815193 98.13618461 18.39717152 98.1328125 21.40625 C98.1334855 23.48750825 98.13445549 25.56876643 98.13571167 27.65002441 C98.13718884 32.01815538 98.13503348 36.38626593 98.13037109 40.75439453 C98.1246738 46.36714553 98.1279527 51.97984872 98.13394356 57.59259796 C98.13754866 61.89211389 98.13641082 66.19161838 98.13381577 70.49113464 C98.13314636 72.56129461 98.1339754 74.6314556 98.13629532 76.70161438 C98.13882102 79.58951586 98.13498242 82.47733878 98.12939453 85.36523438 C98.13141876 86.22968674 98.13344299 87.0941391 98.13552856 87.98478699 C98.11426237 93.88573763 98.11426237 93.88573763 97 95 C93.98649762 95.09529612 90.99595894 95.12551904 87.98217773 95.11352539 C87.03593536 95.11367142 86.08969299 95.11381744 85.11477661 95.1139679 C81.97102608 95.11326836 78.82733399 95.10547409 75.68359375 95.09765625 C73.51025932 95.09579221 71.33692448 95.09436824 69.16358948 95.09336853 C63.43098805 95.08954221 57.69841177 95.07971097 51.96582031 95.06866455 C46.12109721 95.05845287 40.27637007 95.05387143 34.43164062 95.04882812 C22.954416 95.0380888 11.47721009 95.02101102 0 95 C-1.4311583 92.1376834 -1.12729297 89.69645658 -1.12939453 86.49682617 C-1.13114685 85.82800919 -1.13289917 85.1591922 -1.13470459 84.47010803 C-1.1391256 82.24436893 -1.13617799 80.01870877 -1.1328125 77.79296875 C-1.13348697 76.23187749 -1.13445818 74.67078634 -1.13571167 73.10969543 C-1.13719018 69.82010916 -1.1350347 66.53054993 -1.13037109 63.2409668 C-1.12476295 59.08863422 -1.1278939 54.93636757 -1.13394356 50.78403759 C-1.13762239 47.54657021 -1.13637625 44.30911746 -1.13381577 41.07164955 C-1.13316178 39.54553532 -1.13391946 38.01941963 -1.13629532 36.49330711 C-1.15106521 24.30486614 -0.65619256 12.16996328 0 0 Z " fill="#F2F2F2" transform="translate(57,388)"/>
<path d="M0 0 C1.87524747 0.14261591 3.75018964 0.28924857 5.625 0.4375 C6.66914063 0.51871094 7.71328125 0.59992187 8.7890625 0.68359375 C12 1 12 1 14.49596596 1.50988674 C19.42801466 2.19973805 24.30105299 2.15364641 29.27548218 2.15821838 C30.98601334 2.16562535 30.98601334 2.16562535 32.73110068 2.17318195 C36.55429352 2.18854671 40.37746959 2.19691486 44.20068359 2.20532227 C46.94045377 2.21435677 49.68021782 2.22486861 52.41998291 2.23532104 C58.31959715 2.25705535 64.21921367 2.27521094 70.11884689 2.29092598 C78.64869305 2.31365238 87.17851462 2.34179135 95.70833988 2.37124526 C109.54789932 2.41888722 123.38746881 2.46216059 137.22705078 2.50268555 C150.66976708 2.54205776 164.11247444 2.58348812 177.55517578 2.62768555 C178.79838843 2.63177196 178.79838843 2.63177196 180.06671648 2.63594092 C184.22466459 2.64962068 188.38261257 2.6633409 192.54056048 2.67708123 C227.02702183 2.79099266 261.51350197 2.89781379 296 3 C296.02332909 19.1503192 296.04097922 35.30063296 296.05181217 51.45096493 C296.05697511 58.94933064 296.06401776 66.44768591 296.07543945 73.94604492 C296.08538637 80.47930504 296.09185344 87.01255759 296.09408849 93.54582506 C296.09539559 97.00721807 296.09848136 100.46858942 296.10573006 103.92997551 C296.11374407 107.78787527 296.11399113 111.64575357 296.11352539 115.50366211 C296.11712067 116.65955841 296.12071594 117.81545471 296.12442017 119.00637817 C296.1230455 120.05110794 296.12167084 121.09583771 296.12025452 122.17222595 C296.12163721 123.54247122 296.12163721 123.54247122 296.12304783 124.94039822 C296 127 296 127 295 128 C293.05568714 128.09772587 291.1077617 128.12371294 289.16099453 128.12304783 C287.8840807 128.12503888 286.60716687 128.12702993 285.29155868 128.12908131 C283.85602897 128.12622771 282.42049945 128.1232821 280.98497009 128.12025452 C279.47442992 128.12069009 277.96388982 128.12156473 276.45335013 128.12284368 C272.28262391 128.12509146 268.11192311 128.12106352 263.94120014 128.11606562 C259.45105987 128.11176534 254.96092116 128.11320724 250.47077942 128.1139679 C242.68470352 128.1144934 234.89863598 128.11134385 227.11256218 128.10573006 C215.85507081 128.09761863 204.59758349 128.0950002 193.34008951 128.09374207 C175.07755412 128.09155098 156.8150232 128.08488938 138.55249023 128.07543945 C120.80737327 128.06626679 103.06225752 128.05918524 85.31713867 128.05493164 C84.22416101 128.05466892 83.13118336 128.05440619 82.00508516 128.05413551 C76.52218573 128.05283051 71.03928628 128.0515668 65.55638683 128.05032361 C20.03758726 128.03994924 -25.48120407 128.02151 -71 128 C-71 159.02 -71 190.04 -71 222 C-22.80273531 221.8945741 25.39451547 221.78562936 73.59175379 221.66888306 C79.27837288 221.65511303 84.96499207 221.641386 90.65161133 221.62768555 C92.3498085 221.62359309 92.3498085 221.62359309 94.08231268 221.61941796 C112.42769803 221.57531033 130.77308953 221.53468792 149.11848565 221.49534739 C167.93435571 221.45492061 186.75021433 221.4107627 205.56606752 221.36312145 C217.18190359 221.33382865 228.79773879 221.30746652 240.41358975 221.28482103 C248.37268435 221.26902607 256.33176494 221.24961584 264.29084399 221.22733159 C268.88679243 221.21457134 273.48273011 221.20343485 278.07869148 221.19658089 C282.28374996 221.19027479 286.48877125 221.17944369 290.69380931 221.1649667 C292.2174373 221.16052835 293.74107127 221.15777098 295.26470544 221.15683801 C297.3317725 221.15532973 299.39873184 221.14776437 301.4657774 221.1386652 C302.61519084 221.13600716 303.76460428 221.13334911 304.94884843 221.13061053 C307.7538337 221.01053763 310.26714646 220.60919564 313 220 C314.43628457 219.93733488 315.8750555 219.91313653 317.3125 219.9375 C318.529375 219.958125 319.74625 219.97875 321 220 C305.54977349 229.2701359 276.00734623 224.14431745 258.304052 224.13072467 C253.89189862 224.12843929 249.47974903 224.1319654 245.06759644 224.13470459 C236.45413687 224.13912612 227.84068608 224.13820256 219.22722619 224.13529195 C212.23065172 224.13302612 205.23407969 224.13273048 198.23750496 224.13381577 C197.23875131 224.133969 196.23999765 224.13412223 195.21097874 224.13428011 C193.18174234 224.13459985 191.15250595 224.13492406 189.12326957 224.1352527 C170.14993498 224.13809623 151.17660525 224.13483688 132.20327146 224.12945233 C115.91651775 224.12497361 99.62977116 224.12577118 83.34301758 224.13037109 C64.40745634 224.13571665 45.47189932 224.13783393 26.53633744 224.13475883 C24.52010063 224.13444028 22.50386383 224.13412591 20.48762703 224.13381577 C19.49566941 224.13366149 18.5037118 224.13350721 17.48169486 224.13334826 C10.4832783 224.13248392 3.48486443 224.13394396 -3.51355171 224.13629532 C-12.02605211 224.13909276 -20.53854329 224.13835574 -29.05104262 224.13301457 C-33.39562429 224.13037862 -37.74019054 224.12937089 -42.08477211 224.13266373 C-46.05575383 224.13562811 -50.02670573 224.13403153 -53.99768471 224.12868617 C-55.43926906 224.12756275 -56.88085589 224.12815153 -58.32243866 224.13056196 C-60.27132625 224.13357256 -62.22022082 224.12990765 -64.16910648 224.12584114 C-65.25467998 224.12567879 -66.34025347 224.12551644 -67.45872313 224.12534916 C-70 224 -70 224 -72 223 C-72.02312143 210.500429 -72.04091406 198.00086305 -72.05181217 185.50127506 C-72.05704144 179.69786387 -72.06413987 173.89446725 -72.07543945 168.09106445 C-72.08626678 162.49549147 -72.0922765 156.89993255 -72.09487724 151.3043499 C-72.09673177 149.16441056 -72.10035291 147.02447204 -72.10573006 144.88453865 C-72.11293844 141.89835034 -72.11399103 138.91222093 -72.11352539 135.92602539 C-72.11712067 135.03194977 -72.12071594 134.13787415 -72.12442017 133.21670532 C-72.11405216 127.11405216 -72.11405216 127.11405216 -71 126 C-69.06104123 125.89724518 -67.11828592 125.86599109 -65.1766119 125.8613348 C-63.90318147 125.85586036 -62.62975103 125.85038591 -61.3177318 125.84474558 C-59.88613258 125.84366917 -58.4545333 125.84268451 -57.02293396 125.84178162 C-55.51651742 125.83722007 -54.01010215 125.83222066 -52.5036884 125.82681805 C-48.34437609 125.81318107 -44.185072 125.80580259 -40.02574313 125.79939139 C-35.54786308 125.79141174 -31.07000026 125.77770565 -26.59213257 125.76467896 C-18.82734654 125.7428815 -11.06255881 125.72474903 -3.2977581 125.70907402 C7.92897542 125.68640507 19.1556899 125.65825818 30.3824073 125.62875474 C48.59501769 125.58104226 66.80763586 125.53778802 85.02026367 125.49731445 C102.71688441 125.4579781 120.41349824 125.41655637 138.11010742 125.37231445 C139.20009808 125.36959018 140.29008875 125.36686591 141.41310943 125.36405908 C146.88102489 125.35037991 152.34894024 125.33665958 157.81685555 125.32291877 C203.21122262 125.20889658 248.60560465 125.10209997 294 125 C293.99861731 124.1283906 293.99861731 124.1283906 293.99720669 123.23917294 C293.97509711 109.08325976 293.95856195 94.92734918 293.94818783 80.77142239 C293.9430373 73.92565223 293.93601833 67.07989361 293.92456055 60.23413086 C293.91350754 53.62705067 293.90771465 47.01997931 293.90512276 40.41288948 C293.90327574 37.8927396 293.899669 35.37259037 293.89426994 32.8524456 C293.88700645 29.32145649 293.88601131 25.79051687 293.88647461 22.25952148 C293.88287933 21.21870422 293.87928406 20.17788696 293.87557983 19.10552979 C293.88288198 13.9591186 294.10612174 9.07102895 295 4 C294.12357999 4.00170874 294.12357999 4.00170874 293.22945452 4.003452 C258.5490464 4.0706834 223.86865137 4.12210867 189.18819186 4.15319599 C185.0178765 4.15694781 180.84756126 4.16083081 176.67724609 4.16479492 C175.43196926 4.16597532 175.43196926 4.16597532 174.16153532 4.16717956 C160.74458158 4.18020981 147.32766667 4.20385045 133.91073591 4.23145839 C120.12902983 4.25957901 106.34734399 4.27619029 92.56561041 4.28226548 C84.0713709 4.28636816 75.57724116 4.29929465 67.08303547 4.3237494 C61.24689506 4.33968891 55.41081085 4.34438191 49.57465029 4.34050413 C46.21465857 4.33859524 42.85501059 4.34305776 39.49502754 4.35761642 C26.00370514 4.41317878 13.13985579 4.33854791 0 1 C0 0.67 0 0.34 0 0 Z " fill="#323131" transform="translate(254,681)"/>
<path d="M0 0 C0.33 0 0.66 0 1 0 C0.85796663 2.37528151 0.71148388 4.75015251 0.5625 7.125 C0.52318359 7.79015625 0.48386719 8.4553125 0.44335938 9.140625 C0.26176515 11.99025741 0.0467462 14.76451273 -0.50970459 17.56767273 C-1.18779519 22.31466569 -1.15582322 26.99495962 -1.16113281 31.78442383 C-1.16609772 32.86014648 -1.17106262 33.93586914 -1.17617798 35.04418945 C-1.19076412 38.59847663 -1.19759815 42.15271907 -1.203125 45.70703125 C-1.20888235 48.19121806 -1.21464001 50.67540487 -1.22039795 53.15959167 C-1.23089994 58.37226569 -1.23674688 63.58492432 -1.24023438 68.79760742 C-1.24491215 75.43666174 -1.26967951 82.07552999 -1.29820633 88.71452808 C-1.31695349 93.85107489 -1.32204485 98.98757312 -1.32357025 104.12415123 C-1.32657357 106.56905937 -1.33452233 109.01396715 -1.34775543 111.45884132 C-1.42242957 126.32462426 -1.05325823 140.32505448 3.06121826 154.71028137 C4.03806059 158.13337353 4.56781842 161.47051713 5 165 C2.29951659 162.29951659 1.97213287 159.87476958 1 156.1875 C0.67 154.96417969 0.34 153.74085938 0 152.48046875 C-0.34487641 150.98960239 -0.67736573 149.49583735 -1 148 C-1.17311203 147.21854111 -1.34622406 146.43708221 -1.52458191 145.63194275 C-3.7742595 133.54785259 -3.3086388 121.26676385 -3.30078125 109.0234375 C-3.30467613 106.48678519 -3.30901241 103.95013352 -3.31376648 101.41348267 C-3.321202 96.10977798 -3.32109832 90.80614275 -3.31567383 85.50244141 C-3.30965103 79.42389109 -3.32191557 73.34557324 -3.3432439 67.26706254 C-3.3631834 61.36121473 -3.36600993 55.45545586 -3.36250877 49.54957962 C-3.36301715 47.06446412 -3.36816235 44.57934452 -3.37832069 42.09424973 C-3.42973245 27.75590976 -2.81818534 14.08043478 0 0 Z " fill="#090909" transform="translate(185,460)"/>
<path d="M0 0 C0.66 0.33 1.32 0.66 2 1 C0.27538679 2.92093521 -1.45442609 4.836722 -3.1875 6.75 C-3.67025391 7.28882813 -4.15300781 7.82765625 -4.65039062 8.3828125 C-7.56554941 11.59144364 -10.54844803 14.3522341 -14 17 C-15.35147138 18.31494512 -16.69112542 19.64264858 -18 21 C-16.55480014 16.4108566 -13.93531721 13.36647036 -10.6875 9.9375 C-9.9769043 9.1630957 -9.9769043 9.1630957 -9.25195312 8.37304688 C-6.36933639 5.27748718 -3.37849072 2.56617601 0 0 Z " fill="#646563" transform="translate(218,408)"/>
<path d="M0 0 C0.33 0 0.66 0 1 0 C1.12117187 0.64066406 1.24234375 1.28132812 1.3671875 1.94140625 C2.1366919 5.91323279 2.94148173 9.79690718 4.0625 13.6875 C5.03356422 17.11859359 5.56706069 20.46432893 6 24 C3.32132393 21.32132393 2.80419363 18.3744089 1.875 14.8125 C1.69324219 14.16474609 1.51148438 13.51699219 1.32421875 12.84960938 C0.16186595 8.47549225 -0.17561531 4.51331346 0 0 Z " fill="#404040" transform="translate(184,601)"/>
<path d="M0 0 C-1.32258472 0.68774405 -2.65986503 1.34711373 -4 2 C-5.6396875 2.804375 -5.6396875 2.804375 -7.3125 3.625 C-11.16010307 5.05969945 -13.93327879 5.24898293 -18 5 C-15.59881473 2.59881473 -13.94503958 2.24779139 -10.6875 1.375 C-9.74261719 1.11460937 -8.79773438 0.85421875 -7.82421875 0.5859375 C-5.12148098 0.02520352 -2.74968152 -0.1101876 0 0 Z " fill="#464546" transform="translate(262,390)"/>
</svg>
